<svg width="174" height="192" viewBox="0 0 174 192" fill="none" xmlns="http://www.w3.org/2000/svg">
<path d="M63.92 163.17C64.06 160.79 65.6 158.06 68.54 154.98C71.62 151.76 76.17 149.17 82.19 147.21L84.08 146.58C90.8 144.34 96.26 142.38 100.46 140.7C104.66 139.02 106.76 136.36 106.76 132.72C106.76 130.06 105.92 128.24 104.24 127.26C102.56 126.14 100.04 125.51 96.68 125.37C93.32 125.09 89.12 124.95 84.08 124.95H82.19C73.37 124.95 66.37 123.97 61.19 122.01C56.01 120.05 53.42 115.78 53.42 109.2C53.42 103.04 55.8 98.35 60.56 95.13C65.32 91.77 72.53 90.09 82.19 90.09H84.08C88.42 90.09 92.62 89.88 96.68 89.46C100.88 88.9 104.31 87.85 106.97 86.31C109.77 84.77 111.17 82.46 111.17 79.38C111.17 75.6 108.79 73.22 104.03 72.24C99.41 71.26 92.76 70.77 84.08 70.77H79.88C74.84 70.77 70.5 70.77 66.86 70.77C63.36 70.63 60.28 70.35 57.62 69.93C55.1 69.37 52.79 68.53 50.69 67.41C48.45 66.29 46.56 64.61 45.02 62.37C43.48 59.99 42.71 57.05 42.71 53.55C42.71 48.37 44.32 43.82 47.54 39.9C50.9 35.84 55.52 32.69 61.4 30.45C67.42 28.07 74.28 26.88 81.98 26.88H84.08C86.46 26.88 89.12 27.02 92.06 27.3C95.14 27.44 98.01 27.86 100.67 28.56L93.95 29.4C96.05 26.46 98.22 24.29 100.46 22.89C102.7 21.49 104.94 20.79 107.18 20.79C109.7 20.79 112.08 21.42 114.32 22.68C116.7 23.8 118.59 25.27 119.99 27.09C121.53 28.91 122.3 30.8 122.3 32.76C122.3 33.32 122.3 33.88 122.3 34.44C122.3 35 122.23 35.42 122.09 35.7C121.25 35.56 120.41 35.49 119.57 35.49C118.73 35.35 117.75 35.28 116.63 35.28C113.41 35.28 110.61 35.77 108.23 36.75C109.77 37.31 111.31 37.8 112.85 38.22C114.39 38.64 115.86 38.85 117.26 38.85C118.8 38.85 120.06 38.64 121.04 38.22V40.32C119.64 40.74 117.96 41.09 116 41.37C114.04 41.65 111.8 41.79 109.28 41.79C107.04 41.79 104.38 41.44 101.3 40.74C98.36 39.9 96.12 38.22 94.58 35.7L105.71 40.32C102.35 39.34 98.64 38.71 94.58 38.43C90.66 38.01 87.09 37.8 83.87 37.8H81.98C72.74 37.8 65.81 39.2 61.19 42C56.57 44.66 54.26 48.23 54.26 52.71C54.26 56.07 55.45 58.24 57.83 59.22C60.35 60.06 63.92 60.48 68.54 60.48C70.5 60.48 72.53 60.48 74.63 60.48C76.87 60.34 79.32 60.27 81.98 60.27H84.08C95.98 60.27 105.08 61.53 111.38 64.05C117.82 66.43 121.04 71.19 121.04 78.33C121.04 81.27 120.55 84 119.57 86.52C118.59 89.04 116.77 91.28 114.11 93.24C111.59 95.2 107.88 96.74 102.98 97.86C98.22 98.98 91.92 99.54 84.08 99.54H82.19C77.15 99.54 73.23 99.96 70.43 100.8C67.63 101.64 65.67 102.76 64.55 104.16C63.57 105.42 63.08 106.89 63.08 108.57C63.08 111.09 63.99 112.91 65.81 114.03C67.63 115.15 70.01 115.85 72.95 116.13C75.89 116.41 78.97 116.55 82.19 116.55H84.08C92.2 116.55 98.5 117.11 102.98 118.23C107.46 119.35 110.61 121.03 112.43 123.27C114.39 125.37 115.37 128.17 115.37 131.67C115.37 135.59 114.39 138.81 112.43 141.33C110.61 143.71 107.88 145.74 104.24 147.42C101.58 148.68 98.43 149.8 94.79 150.78C91.29 151.76 87.72 152.81 84.08 153.93L82.19 154.56C78.13 155.96 74.7 157.36 71.9 158.76C69.24 160.02 66.58 161.49 63.92 163.17ZM80.09 170.94L76.94 11.13C76.94 9.30999 77.43 7.76999 78.41 6.50999C79.53 5.10999 81.14 4.40999 83.24 4.40999C85.34 4.40999 86.88 5.10999 87.86 6.50999C88.98 7.76999 89.54 9.30999 89.54 11.13L86.18 170.94H80.09ZM109.28 30.45C110.82 30.45 112.22 29.75 113.48 28.35L110.96 27.93C110.26 27.65 109.56 27.51 108.86 27.51C108.16 27.37 107.46 27.3 106.76 27.3C105.64 27.3 104.73 27.65 104.03 28.35C105.43 29.75 107.18 30.45 109.28 30.45Z" fill="#A4A652" fill-opacity="0.7"/>
<path d="M10.3256 55.36H69.1256V62.64L50.0856 64.32L89.8456 162.04L123.446 67.96L101.046 62.64V55.36H154.806V62.64L135.206 67.96L88.7256 192H77.5256L23.4856 64.04L10.3256 62.08V55.36Z" fill="#3E3E3E"/>
</svg>
