<svg width="497" height="35" viewBox="0 0 497 35" fill="none" xmlns="http://www.w3.org/2000/svg">
<path d="M0.5 34L4.78 0.999998H8L17.7 26.82L27.42 0.999998H30.64L34.92 34H31.88L28.22 6.66L18.8 31.98H16.62L7.2 6.66L3.54 34H0.5ZM40.5663 34L53.5663 0.999998H56.3863L69.3663 34H66.0863L62.0663 23.48H47.8863L43.8263 34H40.5663ZM48.9063 20.8H61.0263L54.9663 5L48.9063 20.8ZM76.9113 34V0.999998H85.4713C87.6313 0.999998 89.4979 1.37333 91.0713 2.12C92.6446 2.86666 93.8579 3.94 94.7113 5.34C95.5779 6.72666 96.0113 8.38667 96.0113 10.32C96.0113 12.0933 95.6446 13.66 94.9113 15.02C94.1913 16.3667 93.1646 17.46 91.8313 18.3C90.5113 19.1267 88.9379 19.6333 87.1113 19.82L98.0913 34H94.2313L83.7113 20.1H79.9513V34H76.9113ZM79.9513 17.46H84.7513C86.4313 17.46 87.8779 17.1733 89.0913 16.6C90.3046 16.0267 91.2379 15.2133 91.8913 14.16C92.5579 13.0933 92.8913 11.84 92.8913 10.4C92.8913 8.24 92.1713 6.54667 90.7313 5.32C89.2913 4.09333 87.2979 3.48 84.7513 3.48H79.9513V17.46ZM119.28 34.64C116.813 34.64 114.52 34.2067 112.4 33.34C110.28 32.4733 108.427 31.2667 106.84 29.72C105.267 28.16 104.04 26.34 103.16 24.26C102.28 22.18 101.84 19.9333 101.84 17.52C101.84 15.1067 102.28 12.86 103.16 10.78C104.04 8.7 105.267 6.88667 106.84 5.34C108.427 3.78 110.273 2.56666 112.38 1.7C114.5 0.833332 116.8 0.399999 119.28 0.399999C121.347 0.399999 123.287 0.706665 125.1 1.32C126.913 1.92 128.513 2.74666 129.9 3.8L128.46 6.34C127.287 5.39333 125.927 4.66666 124.38 4.16C122.833 3.65333 121.193 3.4 119.46 3.4C117.367 3.4 115.447 3.76 113.7 4.48C111.967 5.2 110.46 6.2 109.18 7.48C107.9 8.76 106.907 10.26 106.2 11.98C105.507 13.7 105.16 15.5467 105.16 17.52C105.16 19.4933 105.507 21.34 106.2 23.06C106.907 24.78 107.9 26.28 109.18 27.56C110.46 28.84 111.967 29.84 113.7 30.56C115.447 31.28 117.367 31.64 119.46 31.64C121.193 31.64 122.833 31.3867 124.38 30.88C125.927 30.3733 127.287 29.6467 128.46 28.7L129.9 31.24C128.527 32.28 126.933 33.1067 125.12 33.72C123.32 34.3333 121.373 34.64 119.28 34.64ZM151.428 34.64C148.962 34.64 146.668 34.2067 144.548 33.34C142.428 32.4733 140.575 31.2667 138.988 29.72C137.415 28.16 136.188 26.34 135.308 24.26C134.428 22.18 133.988 19.9333 133.988 17.52C133.988 15.1067 134.428 12.86 135.308 10.78C136.188 8.7 137.415 6.88667 138.988 5.34C140.575 3.78 142.422 2.56666 144.528 1.7C146.648 0.833332 148.948 0.399999 151.428 0.399999C153.495 0.399999 155.435 0.706665 157.248 1.32C159.062 1.92 160.662 2.74666 162.048 3.8L160.608 6.34C159.435 5.39333 158.075 4.66666 156.528 4.16C154.982 3.65333 153.342 3.4 151.608 3.4C149.515 3.4 147.595 3.76 145.848 4.48C144.115 5.2 142.608 6.2 141.328 7.48C140.048 8.76 139.055 10.26 138.348 11.98C137.655 13.7 137.308 15.5467 137.308 17.52C137.308 19.4933 137.655 21.34 138.348 23.06C139.055 24.78 140.048 26.28 141.328 27.56C142.608 28.84 144.115 29.84 145.848 30.56C147.595 31.28 149.515 31.64 151.608 31.64C153.342 31.64 154.982 31.3867 156.528 30.88C158.075 30.3733 159.435 29.6467 160.608 28.7L162.048 31.24C160.675 32.28 159.082 33.1067 157.268 33.72C155.468 34.3333 153.522 34.64 151.428 34.64ZM169.177 34V0.999998H185.797V3.68H172.217V16.12H185.317V18.8H172.217V31.32H185.797V34H169.177ZM194.685 34V0.999998H197.725V31.32H211.545V34H194.685ZM219.138 34V0.999998H222.178V31.32H235.998V34H219.138ZM240.957 34L253.957 0.999998H256.777L269.757 34H266.477L262.457 23.48H248.277L244.217 34H240.957ZM249.297 20.8H261.417L255.357 5L249.297 20.8ZM287.575 34V0.999998H296.135C298.295 0.999998 300.162 1.37333 301.735 2.12C303.309 2.86666 304.522 3.93333 305.375 5.32C306.242 6.70667 306.675 8.37333 306.675 10.32C306.675 12.2533 306.242 13.9533 305.375 15.42C304.522 16.8733 303.309 18.0067 301.735 18.82C300.162 19.62 298.295 20.02 296.135 20.02H290.615V34H287.575ZM290.615 17.46H295.415C297.069 17.46 298.502 17.1733 299.715 16.6C300.942 16.0267 301.889 15.2133 302.555 14.16C303.222 13.0933 303.555 11.84 303.555 10.4C303.555 8.93333 303.222 7.68666 302.555 6.66C301.889 5.62 300.942 4.83333 299.715 4.3C298.502 3.75333 297.069 3.48 295.415 3.48H290.615V17.46ZM314.958 34V0.999998H317.998V34H314.958ZM328.747 34V0.999998H331.787L349.507 28.82V0.999998H352.547V34H349.507L331.787 6.22V34H328.747ZM363.318 34V0.999998H366.358V16.12H384.378V0.999998H387.398V34H384.378V18.8H366.358V34H363.318ZM398.161 34V0.999998H414.781V3.68H401.201V16.12H414.301V18.8H401.201V31.32H414.781V34H398.161ZM423.669 34V0.999998H426.709V34H423.669ZM437.458 34V0.999998H446.018C448.178 0.999998 450.045 1.37333 451.618 2.12C453.191 2.86666 454.405 3.94 455.258 5.34C456.125 6.72666 456.558 8.38667 456.558 10.32C456.558 12.0933 456.191 13.66 455.458 15.02C454.738 16.3667 453.711 17.46 452.378 18.3C451.058 19.1267 449.485 19.6333 447.658 19.82L458.638 34H454.778L444.258 20.1H440.498V34H437.458ZM440.498 17.46H445.298C446.978 17.46 448.425 17.1733 449.638 16.6C450.851 16.0267 451.785 15.2133 452.438 14.16C453.105 13.0933 453.438 11.84 453.438 10.4C453.438 8.24 452.718 6.54667 451.278 5.32C449.838 4.09333 447.845 3.48 445.298 3.48H440.498V17.46ZM480.047 34.64C477.74 34.64 475.58 34.2 473.567 33.32C471.554 32.44 469.787 31.22 468.267 29.66C466.747 28.0867 465.554 26.2667 464.687 24.2C463.834 22.12 463.407 19.8933 463.407 17.52C463.407 15.1333 463.834 12.9067 464.687 10.84C465.554 8.77333 466.747 6.96 468.267 5.4C469.787 3.82666 471.554 2.6 473.567 1.72C475.58 0.839999 477.74 0.399999 480.047 0.399999C482.354 0.399999 484.514 0.839999 486.527 1.72C488.54 2.6 490.307 3.82666 491.827 5.4C493.347 6.96 494.534 8.77333 495.387 10.84C496.254 12.9067 496.687 15.1333 496.687 17.52C496.687 19.8933 496.254 22.12 495.387 24.2C494.534 26.2667 493.347 28.0867 491.827 29.66C490.307 31.22 488.54 32.44 486.527 33.32C484.514 34.2 482.354 34.64 480.047 34.64ZM480.047 31.7C481.927 31.7 483.674 31.34 485.287 30.62C486.9 29.9 488.314 28.8933 489.527 27.6C490.754 26.3067 491.707 24.8 492.387 23.08C493.067 21.36 493.407 19.5067 493.407 17.52C493.407 15.5333 493.067 13.68 492.387 11.96C491.707 10.24 490.754 8.73333 489.527 7.44C488.314 6.14667 486.9 5.14 485.287 4.42C483.674 3.7 481.927 3.34 480.047 3.34C478.167 3.34 476.414 3.7 474.787 4.42C473.174 5.14 471.76 6.14667 470.547 7.44C469.334 8.73333 468.38 10.24 467.687 11.96C467.007 13.68 466.667 15.5333 466.667 17.52C466.667 19.5067 467.007 21.36 467.687 23.08C468.38 24.8 469.334 26.3067 470.547 27.6C471.76 28.8933 473.174 29.9 474.787 30.62C476.414 31.34 478.167 31.7 480.047 31.7Z" fill="#3E3E3E"/>
</svg>
